# 42 made only of triangles
o forty_two

# ---- vertices ----
# digit 4
v 0.0 0.0 0.0
v 0.2 0.0 0.0
v 0.2 1.0 0.0
v 0.0 1.0 0.0

v 0.0 0.5 0.0
v 0.8 0.5 0.0
v 0.8 0.7 0.0
v 0.0 0.7 0.0

v 0.6 0.0 0.0
v 0.8 0.0 0.0
v 0.8 1.0 0.0
v 0.6 1.0 0.0

# digit 2
v 1.2 0.8 0.0
v 2.0 0.8 0.0
v 2.0 1.0 0.0
v 1.2 1.0 0.0

v 1.8 0.5 0.0
v 2.0 0.5 0.0
v 2.0 0.8 0.0
v 1.8 0.8 0.0

v 1.2 0.0 0.0
v 2.0 0.0 0.0
v 2.0 0.2 0.0
v 1.2 0.2 0.0

# ---- faces (triangles only) ----
# 4 left vertical
f 1 2 3
f 1 3 4

# 4 middle bar
f 5 6 7
f 5 7 8

# 4 right vertical
f 9 10 11
f 9 11 12

# 2 top bar
f 13 14 15
f 13 15 16

# 2 diagonal-ish middle
f 17 18 19
f 17 19 20

# 2 bottom bar
f 21 22 23
f 21 23 24
